# xmcd
#
# Track frame offsets: 
#        150
#        22535
#        51547
#        71442
#        95094
#        110861
#        130891
#        153221
#        195098
#        216198
#        238462
#        259340
#
# Disc length: 4277 seconds
#
# Revision: 0
# Processed by: cddbd v1.5.2PL0 Copyright (c) Steve Scherf et al.
# Submitted via: ExactAudioCopyFreeDBPlugin 1.0
#
DISCID=ab10b30c
DTITLE=F.B.I. - F.B.I.
DYEAR=1976
DGENRE=Funk
TTITLE0=F.B.I.
TTITLE1=Talking About Love
TTITLE2=Love, Love, Love
TTITLE3=Free Prison
TTITLE4=The Time Is Right To Leave The City
TTITLE5=Bad Deal
TTITLE6=Let Me Love You
TTITLE7=Keep On Running
TTITLE8=Get That Ball
TTITLE9=Tell The Truth
TTITLE10=Zilch (Live At The Marquee, London August 1976)
TTITLE11=Lead Us (Live At The Freetrade Hall, Manchester 1st October 1
TTITLE11=976)
EXTD=
EXTT0=
EXTT1=
EXTT2=
EXTT3=
EXTT4=
EXTT5=
EXTT6=
EXTT7=
EXTT8=
EXTT9=
EXTT10=
EXTT11=
PLAYORDER=
